<svg aria-hidden="true" style="position: absolute; width: 0; height: 0; overflow: hidden;" version="1.1" xmlns="http://www.w3.org/2000/svg" xmlns:xlink="http://www.w3.org/1999/xlink">
<defs>
<symbol id="icon-eye" viewBox="0 0 32 32">
<path stroke-linejoin="round" stroke-linecap="round" stroke-miterlimit="4" stroke-width="3.2" d="M1.333 16c0 0 5.333-10.667 14.667-10.667s14.667 10.667 14.667 10.667c0 0-5.333 10.667-14.667 10.667s-14.667-10.667-14.667-10.667z"></path>
<path stroke-linejoin="round" stroke-linecap="round" stroke-miterlimit="4" stroke-width="3.2" d="M16 20c2.209 0 4-1.791 4-4s-1.791-4-4-4c-2.209 0-4 1.791-4 4s1.791 4 4 4z"></path>
</symbol>
<symbol id="icon-eye-off" viewBox="0 0 32 32">
<path stroke-linejoin="round" stroke-linecap="round" stroke-miterlimit="4" stroke-width="3.2" d="M23.92 23.92c-2.279 1.737-5.055 2.7-7.92 2.747-9.333 0-14.667-10.667-14.667-10.667 1.659-3.091 3.959-5.791 6.747-7.92M13.2 5.653c0.918-0.215 1.857-0.322 2.8-0.32 9.333 0 14.667 10.667 14.667 10.667-0.809 1.514-1.775 2.94-2.88 4.253M18.827 18.827c-0.366 0.393-0.808 0.708-1.298 0.927s-1.020 0.336-1.557 0.346-1.071-0.089-1.569-0.291c-0.498-0.201-0.95-0.5-1.33-0.88s-0.679-0.832-0.88-1.33c-0.201-0.498-0.3-1.032-0.29-1.569s0.127-1.067 0.346-1.557 0.534-0.932 0.927-1.298"></path>
<path stroke-linejoin="round" stroke-linecap="round" stroke-miterlimit="4" stroke-width="3.2" d="M1.333 1.333l29.333 29.333"></path>
</symbol>
<symbol id="icon-majesticons_logout" viewBox="0 0 32 32">
<path fill="#fff" style="fill: var(--color1, #fff)" d="M8 2.667c-1.061 0-2.078 0.421-2.828 1.172s-1.172 1.768-1.172 2.828v18.667c0 1.061 0.421 2.078 1.172 2.829s1.768 1.171 2.828 1.171h8c1.061 0 2.078-0.421 2.828-1.171s1.172-1.768 1.172-2.829v-18.667c0-1.061-0.421-2.078-1.172-2.828s-1.768-1.172-2.828-1.172h-8zM21.724 9.724c0.25-0.25 0.589-0.39 0.943-0.39s0.693 0.14 0.943 0.39l5.333 5.333c0.25 0.25 0.39 0.589 0.39 0.943s-0.14 0.693-0.39 0.943l-5.333 5.333c-0.252 0.243-0.588 0.377-0.938 0.374s-0.684-0.143-0.931-0.39c-0.247-0.247-0.387-0.582-0.39-0.931s0.131-0.686 0.374-0.938l3.057-3.057h-11.448c-0.354 0-0.693-0.14-0.943-0.391s-0.391-0.589-0.391-0.943c0-0.354 0.14-0.693 0.391-0.943s0.589-0.391 0.943-0.391h11.448l-3.057-3.057c-0.25-0.25-0.39-0.589-0.39-0.943s0.14-0.693 0.39-0.943z"></path>
</symbol>
<symbol id="icon-ic_round-dashboard" viewBox="0 0 32 32">
<path d="M5.333 17.333h8c0.733 0 1.333-0.6 1.333-1.333v-10.667c0-0.733-0.6-1.333-1.333-1.333h-8c-0.733 0-1.333 0.6-1.333 1.333v10.667c0 0.733 0.6 1.333 1.333 1.333zM5.333 28h8c0.733 0 1.333-0.6 1.333-1.333v-5.333c0-0.733-0.6-1.333-1.333-1.333h-8c-0.733 0-1.333 0.6-1.333 1.333v5.333c0 0.733 0.6 1.333 1.333 1.333zM18.667 28h8c0.733 0 1.333-0.6 1.333-1.333v-10.667c0-0.733-0.6-1.333-1.333-1.333h-8c-0.733 0-1.333 0.6-1.333 1.333v10.667c0 0.733 0.6 1.333 1.333 1.333zM17.333 5.333v5.333c0 0.733 0.6 1.333 1.333 1.333h8c0.733 0 1.333-0.6 1.333-1.333v-5.333c0-0.733-0.6-1.333-1.333-1.333h-8c-0.733 0-1.333 0.6-1.333 1.333z"></path>
</symbol>
<symbol id="icon-filter" viewBox="0 0 32 32">
<path fill="none" stroke="#fff" style="stroke: var(--color1, #fff)" stroke-linejoin="round" stroke-linecap="round" stroke-miterlimit="4" stroke-width="3.4286" d="M29.332 4h-26.667l10.667 12.613v8.72l5.333 2.667v-11.387l10.667-12.613z"></path>
</symbol>
<symbol id="icon-users" viewBox="0 0 32 32">
<path d="M21.268 22.58v2.632h-18.424v-2.632c0 0 0-5.264 9.212-5.264s9.212 5.264 9.212 5.264zM16.662 10.078c0-0.911-0.27-1.802-0.776-2.559s-1.226-1.348-2.067-1.696c-0.842-0.349-1.768-0.44-2.661-0.262s-1.714 0.616-2.358 1.261c-0.644 0.644-1.083 1.465-1.261 2.358s-0.087 1.82 0.262 2.661c0.349 0.842 0.939 1.561 1.696 2.067s1.648 0.776 2.559 0.776c1.222 0 2.393-0.485 3.257-1.349s1.349-2.035 1.349-3.257zM21.189 17.316c0.809 0.626 1.471 1.422 1.939 2.331s0.732 1.91 0.772 2.933v2.632h5.264v-2.632c0 0 0-4.777-7.975-5.264zM19.952 5.472c-0.906-0.005-1.792 0.266-2.54 0.776 0.799 1.117 1.229 2.456 1.229 3.83s-0.43 2.713-1.229 3.83c0.748 0.511 1.634 0.781 2.54 0.776 1.222 0 2.393-0.485 3.257-1.349s1.349-2.035 1.349-3.257c0-1.222-0.485-2.393-1.349-3.257s-2.035-1.349-3.257-1.349z"></path>
</symbol>
<symbol id="icon-Group" viewBox="0 0 32 32">
<path d="M19.952 12.882v-7.41h1.316c0.349 0 0.684-0.139 0.931-0.385s0.385-0.582 0.385-0.931c0-0.349-0.139-0.684-0.385-0.931s-0.582-0.385-0.931-0.385h-10.528c-0.349 0-0.684 0.139-0.931 0.385s-0.385 0.582-0.385 0.931c0 0.349 0.139 0.684 0.385 0.931s0.582 0.385 0.931 0.385h1.316v7.41l-6.879 10.108c-1.783 2.622 0.095 6.17 3.264 6.17h15.125c3.172 0 5.048-3.548 3.264-6.17l-6.878-10.108z"></path>
</symbol>
<symbol id="icon-cash" viewBox="0 0 32 32">
<path stroke-linejoin="round" stroke-linecap="round" stroke-miterlimit="4" stroke-width="2.6667" d="M20.57 17.143c5.681 0 10.286-2.047 10.286-4.571s-4.605-4.571-10.286-4.571c-5.681 0-10.286 2.047-10.286 4.571s4.605 4.571 10.286 4.571z"></path>
<path stroke-linejoin="round" stroke-linecap="round" stroke-miterlimit="4" stroke-width="2.6667" d="M10.285 12.571v13.714c0 2.514 4.571 4.571 10.286 4.571s10.286-2.057 10.286-4.571v-13.714"></path>
<path stroke-linejoin="round" stroke-linecap="round" stroke-miterlimit="4" stroke-width="2.6667" d="M30.857 19.429c0 2.514-4.572 4.571-10.286 4.571s-10.286-2.057-10.286-4.571M20.342 3.429c-2.671-1.648-5.78-2.445-8.914-2.286-5.691 0-10.286 2.057-10.286 4.571 0 1.349 1.326 2.56 3.429 3.429"></path>
<path stroke-linejoin="round" stroke-linecap="round" stroke-miterlimit="4" stroke-width="2.6667" d="M4.571 22.857c-2.103-0.869-3.429-2.080-3.429-3.429v-13.714"></path>
<path stroke-linejoin="round" stroke-linecap="round" stroke-miterlimit="4" stroke-width="2.6667" d="M4.571 16c-2.103-0.869-3.429-2.080-3.429-3.429"></path>
</symbol>
<symbol id="icon-mdi_local-pharmacy" viewBox="0 0 32 32">
<path d="M21.264 18.632h-3.948v3.948h-2.632v-3.948h-3.948v-2.632h3.948v-3.948h2.632v3.948h3.948zM27.845 6.788h-3.488l1.514-4.145-3.093-1.119-1.921 5.264h-16.7v2.632l2.632 7.896-2.632 7.896v2.632h23.688v-2.632l-2.632-7.896 2.632-7.896v-2.632z"></path>
</symbol>
<symbol id="icon-ic_round-shopping-cart" viewBox="0 0 32 32">
<path d="M9.423 23.896c-1.448 0-2.619 1.184-2.619 2.632s1.171 2.632 2.619 2.632 2.632-1.184 2.632-2.632c0-1.448-1.184-2.632-2.632-2.632zM1.527 4.156c0 0.724 0.592 1.316 1.316 1.316h1.316l4.738 9.989-1.777 3.211c-0.961 1.763 0.303 3.909 2.303 3.909h14.476c0.724 0 1.316-0.592 1.316-1.316s-0.592-1.316-1.316-1.316h-14.476l1.448-2.632h9.804c0.987 0 1.856-0.54 2.303-1.355l4.711-8.541c0.111-0.199 0.168-0.424 0.165-0.653s-0.065-0.452-0.181-0.649-0.281-0.36-0.479-0.473c-0.198-0.113-0.422-0.173-0.651-0.173h-19.477l-0.882-1.882c-0.106-0.225-0.273-0.414-0.483-0.547s-0.453-0.203-0.701-0.203h-2.158c-0.724 0-1.316 0.592-1.316 1.316zM22.583 23.896c-1.448 0-2.619 1.184-2.619 2.632s1.171 2.632 2.619 2.632c1.448 0 2.632-1.184 2.632-2.632s-1.184-2.632-2.632-2.632z"></path>
</symbol>
<symbol id="icon-menu-hamburger" viewBox="0 0 47 32">
<path stroke-linejoin="round" stroke-linecap="round" stroke-miterlimit="4" stroke-width="4.3636" d="M1.961 29.153h42.964M1.961 15.615h42.964M1.961 2.077h42.964"></path>
</symbol>

</defs>
</svg>
