<svg aria-hidden="true" style="position: absolute; width: 0; height: 0; overflow: hidden;" version="1.1" xmlns="http://www.w3.org/2000/svg" xmlns:xlink="http://www.w3.org/1999/xlink">
<defs>
<symbol id="icon-eye" viewBox="0 0 32 32">
<path stroke-linejoin="round" stroke-linecap="round" stroke-miterlimit="4" stroke-width="3.2" d="M1.333 16c0 0 5.333-10.667 14.667-10.667s14.667 10.667 14.667 10.667c0 0-5.333 10.667-14.667 10.667s-14.667-10.667-14.667-10.667z"></path>
<path stroke-linejoin="round" stroke-linecap="round" stroke-miterlimit="4" stroke-width="3.2" d="M16 20c2.209 0 4-1.791 4-4s-1.791-4-4-4c-2.209 0-4 1.791-4 4s1.791 4 4 4z"></path>
</symbol>
<symbol id="icon-eye-off" viewBox="0 0 32 32">
<path stroke-linejoin="round" stroke-linecap="round" stroke-miterlimit="4" stroke-width="3.2" d="M23.92 23.92c-2.279 1.737-5.055 2.7-7.92 2.747-9.333 0-14.667-10.667-14.667-10.667 1.659-3.091 3.959-5.791 6.747-7.92M13.2 5.653c0.918-0.215 1.857-0.322 2.8-0.32 9.333 0 14.667 10.667 14.667 10.667-0.809 1.514-1.775 2.94-2.88 4.253M18.827 18.827c-0.366 0.393-0.808 0.708-1.298 0.927s-1.020 0.336-1.557 0.346-1.071-0.089-1.569-0.291c-0.498-0.201-0.95-0.5-1.33-0.88s-0.679-0.832-0.88-1.33c-0.201-0.498-0.3-1.032-0.29-1.569s0.127-1.067 0.346-1.557 0.534-0.932 0.927-1.298"></path>
<path stroke-linejoin="round" stroke-linecap="round" stroke-miterlimit="4" stroke-width="3.2" d="M1.333 1.333l29.333 29.333"></path>
</symbol>
<symbol id="icon-logout" viewBox="0 0 32 32">
<path fill="#fff" style="fill: var(--color1, #fff)" d="M8 2.667c-1.061 0-2.078 0.421-2.828 1.172s-1.172 1.768-1.172 2.828v18.667c0 1.061 0.421 2.078 1.172 2.829s1.768 1.171 2.828 1.171h8c1.061 0 2.078-0.421 2.828-1.171s1.172-1.768 1.172-2.829v-18.667c0-1.061-0.421-2.078-1.172-2.828s-1.768-1.172-2.828-1.172h-8zM21.724 9.724c0.25-0.25 0.589-0.39 0.943-0.39s0.693 0.14 0.943 0.39l5.333 5.333c0.25 0.25 0.39 0.589 0.39 0.943s-0.14 0.693-0.39 0.943l-5.333 5.333c-0.252 0.243-0.588 0.377-0.938 0.374s-0.684-0.143-0.931-0.39c-0.247-0.247-0.387-0.582-0.39-0.931s0.131-0.686 0.374-0.938l3.057-3.057h-11.448c-0.354 0-0.693-0.14-0.943-0.391s-0.391-0.589-0.391-0.943c0-0.354 0.14-0.693 0.391-0.943s0.589-0.391 0.943-0.391h11.448l-3.057-3.057c-0.25-0.25-0.39-0.589-0.39-0.943s0.14-0.693 0.39-0.943z"></path>
</symbol>
<symbol id="icon-calendar" viewBox="0 0 32 32">
<path fill="none" stroke="#59b17a" style="stroke: var(--color1, #59b17a)" stroke-linejoin="round" stroke-linecap="round" stroke-miterlimit="4" stroke-width="3" d="M25.333 5.332h-18.667c-1.473 0-2.667 1.194-2.667 2.667v18.667c0 1.473 1.194 2.667 2.667 2.667h18.667c1.473 0 2.667-1.194 2.667-2.667v-18.667c0-1.473-1.194-2.667-2.667-2.667z"></path>
<path fill="none" stroke="#59b17a" style="stroke: var(--color1, #59b17a)" stroke-linejoin="round" stroke-linecap="round" stroke-miterlimit="4" stroke-width="3" d="M21.332 2.668v5.333"></path>
<path fill="none" stroke="#59b17a" style="stroke: var(--color1, #59b17a)" stroke-linejoin="round" stroke-linecap="round" stroke-miterlimit="4" stroke-width="3" d="M10.668 2.668v5.333"></path>
<path fill="none" stroke="#59b17a" style="stroke: var(--color1, #59b17a)" stroke-linejoin="round" stroke-linecap="round" stroke-miterlimit="4" stroke-width="3" d="M4 13.332h24"></path>
</symbol>
<symbol id="icon-trash" viewBox="0 0 32 32">
<path fill="none" stroke="#e85050" style="stroke: var(--color1, #e85050)" stroke-linejoin="round" stroke-linecap="round" stroke-miterlimit="4" stroke-width="2.6" d="M4 8h24"></path>
<path fill="none" stroke="#e85050" style="stroke: var(--color1, #e85050)" stroke-linejoin="round" stroke-linecap="round" stroke-miterlimit="4" stroke-width="2.6" d="M25.333 8v18.667c0 0.707-0.281 1.386-0.781 1.886s-1.178 0.781-1.886 0.781h-13.333c-0.707 0-1.386-0.281-1.886-0.781s-0.781-1.178-0.781-1.886v-18.667M10.667 8v-2.667c0-0.707 0.281-1.386 0.781-1.886s1.178-0.781 1.886-0.781h5.333c0.707 0 1.386 0.281 1.886 0.781s0.781 1.178 0.781 1.886v2.667"></path>
<path fill="none" stroke="#e85050" style="stroke: var(--color1, #e85050)" stroke-linejoin="round" stroke-linecap="round" stroke-miterlimit="4" stroke-width="2.6" d="M13.333 14.667v8"></path>
<path fill="none" stroke="#e85050" style="stroke: var(--color1, #e85050)" stroke-linejoin="round" stroke-linecap="round" stroke-miterlimit="4" stroke-width="2.6" d="M18.667 14.667v8"></path>
</symbol>
<symbol id="icon-edit" viewBox="0 0 32 32">
<path fill="none" stroke="#59b17a" style="stroke: var(--color2, #59b17a)" stroke-linejoin="round" stroke-linecap="round" stroke-miterlimit="4" stroke-width="2.6" d="M22.67 4.002c0.35-0.35 0.766-0.628 1.224-0.817s0.948-0.287 1.443-0.287c0.495 0 0.986 0.098 1.443 0.287s0.873 0.467 1.223 0.817 0.628 0.766 0.817 1.223c0.19 0.458 0.287 0.948 0.287 1.443s-0.098 0.986-0.287 1.443c-0.189 0.458-0.467 0.873-0.817 1.223l-18 18-7.333 2 2-7.333 18-18z"></path>
</symbol>
<symbol id="icon-logo" viewBox="0 0 32 32">
<path d="M0 16v16h32v-32h-32v16zM20.967 3.817c-0.033 1.65-0.1 3.050-0.183 3.117-0.067 0.067-0.55 0.15-1.083 0.2-0.583 0.050-1.083 0.183-1.283 0.367-0.233 0.2-0.717 0.317-1.55 0.367-0.767 0.067-1.317 0.183-1.5 0.35-0.15 0.15-0.7 0.317-1.2 0.383s-1.1 0.25-1.317 0.417c-0.217 0.183-0.567 0.317-0.767 0.317s-0.483 0.117-0.6 0.267c-0.2 0.233-0.233 0.233-0.333-0.050-0.15-0.383-0.183-8.45-0.033-8.6 0.050-0.067 2.317-0.117 5-0.117h4.9l-0.050 2.983zM26.050 6.117c0.133 0.283-0.183 3.183-0.45 3.933-0.15 0.433-0.267 1.25-0.267 1.817 0 0.65-0.117 1.25-0.317 1.7-0.183 0.383-0.383 1.050-0.433 1.483-0.067 0.467-0.2 0.833-0.35 0.9-0.133 0.050-0.283 0.383-0.333 0.733-0.067 0.4-0.233 0.733-0.417 0.833-0.2 0.1-0.317 0.35-0.317 0.667 0 0.367-0.083 0.533-0.333 0.6-0.183 0.050-0.333 0.15-0.333 0.233 0 0.25-1.8 1.983-2.050 1.983-0.133 0-0.283 0.15-0.333 0.333-0.050 0.233-0.233 0.333-0.517 0.333-0.233 0-0.567 0.15-0.717 0.333-0.183 0.2-0.6 0.35-1.167 0.433-0.567 0.067-0.95 0.2-1.033 0.383-0.133 0.217-0.583 0.283-2.733 0.35-2.133 0.067-2.6 0.133-2.85 0.367-0.183 0.183-0.55 0.3-0.967 0.3-0.617 0-0.667-0.033-0.567-0.367 0.050-0.217 0.1-0.483 0.1-0.6 0-0.1 0.117-0.2 0.25-0.2 0.15 0 0.317-0.133 0.367-0.283 0.067-0.167 0.283-0.517 0.5-0.767 0.217-0.267 0.383-0.567 0.383-0.667 0-0.117 0.15-0.3 0.333-0.417s0.333-0.317 0.333-0.45c0-0.133 0.117-0.25 0.25-0.25 0.15 0 0.333-0.183 0.417-0.417s0.267-0.417 0.417-0.417c0.133 0 0.25-0.117 0.25-0.267s0.15-0.3 0.35-0.35c0.183-0.050 0.417-0.267 0.5-0.483 0.067-0.217 0.25-0.4 0.383-0.4 0.117 0 0.267-0.15 0.317-0.317 0.050-0.2 0.3-0.383 0.633-0.483 0.783-0.2 0.733-0.6-0.067-0.667-0.533-0.050-0.65 0-0.733 0.283-0.050 0.2-0.233 0.35-0.417 0.35s-0.367 0.15-0.417 0.333c-0.050 0.183-0.233 0.333-0.417 0.333s-0.367 0.15-0.417 0.333c-0.050 0.183-0.217 0.333-0.367 0.333s-0.767 0.483-1.35 1.067c-1.583 1.567-1.833 1.867-1.833 2.183 0 0.15-0.15 0.317-0.333 0.367s-0.333 0.2-0.333 0.333c0 0.133-0.183 0.467-0.417 0.75-0.233 0.267-0.417 0.617-0.417 0.783 0 0.15-0.15 0.4-0.333 0.567-0.217 0.183-0.333 0.483-0.333 0.867 0 0.333-0.117 0.683-0.317 0.867-0.2 0.2-0.333 0.65-0.417 1.367-0.050 0.6-0.2 1.2-0.333 1.333-0.133 0.15-0.283 0.817-0.35 1.467-0.1 1-0.167 1.217-0.4 1.217-0.383 0-0.55-0.183-0.367-0.4 0.083-0.1 0.183-0.717 0.217-1.383 0.033-0.767 0.15-1.3 0.317-1.5 0.15-0.167 0.317-0.7 0.367-1.2 0.067-0.5 0.217-1.017 0.367-1.183 0.133-0.15 0.3-0.533 0.35-0.85 0.067-0.317 0.183-0.65 0.267-0.75 0.083-0.117 0.067-0.7-0.050-1.417-0.233-1.5-0.083-4.5 0.25-5.033 0.117-0.2 0.267-0.767 0.333-1.267 0.050-0.6 0.2-1 0.433-1.217 0.183-0.167 0.333-0.45 0.333-0.633s0.15-0.4 0.333-0.5c0.183-0.1 0.333-0.25 0.333-0.333 0-0.167 0.667-0.833 1.433-1.417 0.25-0.183 0.583-0.467 0.767-0.633 0.167-0.167 0.55-0.333 0.85-0.4 0.3-0.050 0.633-0.2 0.733-0.35 0.117-0.133 0.617-0.317 1.133-0.383 0.5-0.067 1.033-0.233 1.183-0.383 0.133-0.15 0.3-0.267 0.367-0.267 2-0.133 2.467-0.217 2.667-0.467 0.133-0.183 0.55-0.283 1.283-0.333 0.85-0.050 1.133-0.133 1.267-0.383 0.117-0.233 0.35-0.317 0.8-0.317 0.367 0 0.8-0.133 1.033-0.317 0.217-0.167 0.667-0.367 0.983-0.433s0.717-0.267 0.883-0.433c0.167-0.183 0.483-0.317 0.7-0.317 0.233 0 0.483-0.133 0.583-0.333 0.183-0.333 0.433-0.433 0.55-0.217zM8.917 11.15c0.317 0.133 0.317 0.133-0.033 0.25-0.583 0.183-1.717 1.333-1.717 1.733 0 0.2-0.15 0.433-0.333 0.533s-0.367 0.433-0.433 0.75c-0.050 0.333-0.217 0.65-0.367 0.733-0.183 0.1-0.3 0.533-0.383 1.35-0.083 0.65-0.217 1.3-0.317 1.417-0.1 0.133-0.25 0.9-0.3 1.7l-0.117 1.467h-1.483c-0.8 0.017-1.733-0.017-2.033-0.050l-0.567-0.067v-4.867c0-2.683 0.050-4.933 0.117-4.983 0.15-0.167 7.567-0.117 7.967 0.033zM31.133 15.983c0.017 2.983-0.017 4.95-0.117 5.017-0.083 0.050-1.833 0.083-3.867 0.083-4.033-0.017-4.267-0.083-3.417-0.867 0.233-0.217 0.433-0.55 0.433-0.733 0-0.2 0.133-0.383 0.317-0.433 0.2-0.050 0.35-0.283 0.417-0.633 0.067-0.3 0.217-0.583 0.333-0.633 0.133-0.050 0.283-0.4 0.35-0.783s0.267-0.85 0.433-1.017c0.2-0.2 0.317-0.55 0.317-0.95 0-0.333 0.15-0.9 0.333-1.25 0.217-0.417 0.333-0.933 0.333-1.583 0-0.533 0.050-1.033 0.117-1.1 0.067-0.050 0.983-0.083 2.033-0.067l1.933 0.050 0.050 4.9zM20.967 26.867l-0.050 4.217h-9.833v-2.95c0-1.617 0.067-3 0.133-3.083 0.083-0.067 1.25-0.167 2.617-0.217 1.95-0.067 2.533-0.133 2.767-0.35 0.183-0.15 0.717-0.317 1.217-0.35 0.567-0.067 0.95-0.183 1.033-0.35 0.083-0.133 0.45-0.3 0.8-0.367 0.45-0.067 0.683-0.217 0.733-0.433 0.050-0.167 0.2-0.317 0.35-0.317 0.25 0 0.267 0.433 0.233 4.2z"></path>
<path d="M16.117 15.433c-0.217 0.217-0.117 0.4 0.233 0.4 0.183 0 0.317-0.083 0.283-0.2-0.083-0.233-0.367-0.35-0.517-0.2z"></path>
</symbol>
<symbol id="icon-dashboard" viewBox="0 0 32 32">
<path d="M5.333 17.333h8c0.733 0 1.333-0.6 1.333-1.333v-10.667c0-0.733-0.6-1.333-1.333-1.333h-8c-0.733 0-1.333 0.6-1.333 1.333v10.667c0 0.733 0.6 1.333 1.333 1.333zM5.333 28h8c0.733 0 1.333-0.6 1.333-1.333v-5.333c0-0.733-0.6-1.333-1.333-1.333h-8c-0.733 0-1.333 0.6-1.333 1.333v5.333c0 0.733 0.6 1.333 1.333 1.333zM18.667 28h8c0.733 0 1.333-0.6 1.333-1.333v-10.667c0-0.733-0.6-1.333-1.333-1.333h-8c-0.733 0-1.333 0.6-1.333 1.333v10.667c0 0.733 0.6 1.333 1.333 1.333zM17.333 5.333v5.333c0 0.733 0.6 1.333 1.333 1.333h8c0.733 0 1.333-0.6 1.333-1.333v-5.333c0-0.733-0.6-1.333-1.333-1.333h-8c-0.733 0-1.333 0.6-1.333 1.333z"></path>
</symbol>
<symbol id="icon-filter" viewBox="0 0 32 32">
<path fill="none" stroke="#fff" style="stroke: var(--color1, #fff)" stroke-linejoin="round" stroke-linecap="round" stroke-miterlimit="4" stroke-width="3.4286" d="M29.332 4h-26.667l10.667 12.613v8.72l5.333 2.667v-11.387l10.667-12.613z"></path>
</symbol>
<symbol id="icon-users" viewBox="0 0 32 32">
<path stroke-linejoin="round" stroke-linecap="round" stroke-miterlimit="4" stroke-width="2.6667" d="M28 26.667c0-2.323-2.227-4.297-5.333-5.031M20 26.667c0-2.947-3.581-5.333-8-5.333s-8 2.387-8 5.333M20 17.333c1.414 0 2.771-0.562 3.771-1.562s1.562-2.357 1.562-3.771c0-1.415-0.562-2.771-1.562-3.771s-2.357-1.562-3.771-1.562M12 17.333c-1.415 0-2.771-0.562-3.771-1.562s-1.562-2.357-1.562-3.771c0-1.415 0.562-2.771 1.562-3.771s2.357-1.562 3.771-1.562c1.415 0 2.771 0.562 3.771 1.562s1.562 2.357 1.562 3.771c0 1.415-0.562 2.771-1.562 3.771s-2.357 1.562-3.771 1.562z"></path>
</symbol>
<symbol id="icon-Group" viewBox="0 0 32 32">
<path d="M19.952 12.882v-7.41h1.316c0.349 0 0.684-0.139 0.931-0.385s0.385-0.582 0.385-0.931c0-0.349-0.139-0.684-0.385-0.931s-0.582-0.385-0.931-0.385h-10.528c-0.349 0-0.684 0.139-0.931 0.385s-0.385 0.582-0.385 0.931c0 0.349 0.139 0.684 0.385 0.931s0.582 0.385 0.931 0.385h1.316v7.41l-6.879 10.108c-1.783 2.622 0.095 6.17 3.264 6.17h15.125c3.172 0 5.048-3.548 3.264-6.17l-6.878-10.108z"></path>
</symbol>
<symbol id="icon-cash" viewBox="0 0 32 32">
<path stroke-linejoin="round" stroke-linecap="round" stroke-miterlimit="4" stroke-width="2.6667" d="M20.57 17.143c5.681 0 10.286-2.047 10.286-4.571s-4.605-4.571-10.286-4.571c-5.681 0-10.286 2.047-10.286 4.571s4.605 4.571 10.286 4.571z"></path>
<path stroke-linejoin="round" stroke-linecap="round" stroke-miterlimit="4" stroke-width="2.6667" d="M10.285 12.571v13.714c0 2.514 4.571 4.571 10.286 4.571s10.286-2.057 10.286-4.571v-13.714"></path>
<path stroke-linejoin="round" stroke-linecap="round" stroke-miterlimit="4" stroke-width="2.6667" d="M30.857 19.429c0 2.514-4.572 4.571-10.286 4.571s-10.286-2.057-10.286-4.571M20.342 3.429c-2.671-1.648-5.78-2.445-8.914-2.286-5.691 0-10.286 2.057-10.286 4.571 0 1.349 1.326 2.56 3.429 3.429"></path>
<path stroke-linejoin="round" stroke-linecap="round" stroke-miterlimit="4" stroke-width="2.6667" d="M4.571 22.857c-2.103-0.869-3.429-2.080-3.429-3.429v-13.714"></path>
<path stroke-linejoin="round" stroke-linecap="round" stroke-miterlimit="4" stroke-width="2.6667" d="M4.571 16c-2.103-0.869-3.429-2.080-3.429-3.429"></path>
</symbol>
<symbol id="icon-pharmacy" viewBox="0 0 32 32">
<path d="M21.264 18.632h-3.948v3.948h-2.632v-3.948h-3.948v-2.632h3.948v-3.948h2.632v3.948h3.948zM27.845 6.788h-3.488l1.514-4.145-3.093-1.119-1.921 5.264h-16.7v2.632l2.632 7.896-2.632 7.896v2.632h23.688v-2.632l-2.632-7.896 2.632-7.896v-2.632z"></path>
</symbol>
<symbol id="icon-shopping-cart" viewBox="0 0 32 32">
<path d="M9.423 23.896c-1.448 0-2.619 1.184-2.619 2.632s1.171 2.632 2.619 2.632 2.632-1.184 2.632-2.632c0-1.448-1.184-2.632-2.632-2.632zM1.527 4.156c0 0.724 0.592 1.316 1.316 1.316h1.316l4.738 9.989-1.777 3.211c-0.961 1.763 0.303 3.909 2.303 3.909h14.476c0.724 0 1.316-0.592 1.316-1.316s-0.592-1.316-1.316-1.316h-14.476l1.448-2.632h9.804c0.987 0 1.856-0.54 2.303-1.355l4.711-8.541c0.111-0.199 0.168-0.424 0.165-0.653s-0.065-0.452-0.181-0.649-0.281-0.36-0.479-0.473c-0.198-0.113-0.422-0.173-0.651-0.173h-19.477l-0.882-1.882c-0.106-0.225-0.273-0.414-0.483-0.547s-0.453-0.203-0.701-0.203h-2.158c-0.724 0-1.316 0.592-1.316 1.316zM22.583 23.896c-1.448 0-2.619 1.184-2.619 2.632s1.171 2.632 2.619 2.632c1.448 0 2.632-1.184 2.632-2.632s-1.184-2.632-2.632-2.632z"></path>
</symbol>
<symbol id="icon-burger" viewBox="0 0 32 32">
<path stroke-linejoin="round" stroke-linecap="round" stroke-miterlimit="4" stroke-width="2" d="M4 8.001h24M4 16.001h24M4 24.001h24"></path>
</symbol>
<symbol id="icon-plus" viewBox="0 0 32 32">
<path stroke-linejoin="round" stroke-linecap="round" stroke-miterlimit="4" stroke-width="2.88" d="M16 6.667v18.667"></path>
<path stroke-linejoin="round" stroke-linecap="round" stroke-miterlimit="4" stroke-width="2.88" d="M6.667 16h18.667"></path>
</symbol>
<symbol id="icon-x" viewBox="0 0 32 32">
<path stroke-linejoin="round" stroke-linecap="round" stroke-miterlimit="4" stroke-width="2" d="M24 8l-16 16"></path>
<path stroke-linejoin="round" stroke-linecap="round" stroke-miterlimit="4" stroke-width="2" d="M8 8l16 16"></path>
</symbol>
</defs>
</svg>
